0.06m3min_grf.mot
version=1
nRows=20
nColumns 19
inDegrees=yes
endheader
time	1_ground_force_vx	1_ground_force_vy	1_ground_force_vz	1_ground_force_px	1_ground_force_py	1_ground_force_pz	1_ground_torque_x	1_ground_torque_y	1_ground_torque_z	2_ground_force_vx	2_ground_force_vy	2_ground_force_vz	2_ground_force_px	2_ground_force_py	2_ground_force_pz	2_ground_torque_x	2_ground_torque_y	2_ground_torque_z
            2.502500	            0.094658	           32.973104	            3.763842	           -0.140586	            0.006265	           -0.411065	            0.000131	            0.045583	            0.005203	            3.545801	           68.889025	           -0.835220	           -0.152391	            0.005844	           -0.672749	           -0.015930	           -0.309488	            0.003752
            2.503000	           -0.732249	           37.481159	            3.418366	           -0.145566	            0.006217	           -0.400160	            0.003711	           -0.189949	           -0.017324	            1.584913	           79.932328	           -1.170405	           -0.151901	            0.005857	           -0.675861	           -0.007621	           -0.384367	            0.005628
            2.503500	           -1.372523	           37.838814	            4.063488	           -0.141461	            0.006246	           -0.406685	            0.015332	           -0.422684	           -0.045392	           -1.817564	           88.023009	           -1.233915	           -0.153917	            0.005845	           -0.674442	            0.005577	           -0.270098	            0.003786
            2.504000	           -2.103547	           41.799013	            5.366279	           -0.144674	            0.006254	           -0.408739	            0.024761	           -0.492015	           -0.063166	           -4.985044	           95.929726	           -1.110471	           -0.153651	            0.005841	           -0.672949	            0.000108	           -0.002073	            0.000024
            2.504500	           -3.249372	           46.663998	            5.848553	           -0.148659	            0.006273	           -0.413296	            0.021175	           -0.304091	           -0.038113	           -8.116165	          106.781799	           -0.648036	           -0.152095	            0.005857	           -0.675915	           -0.017441	            0.229462	           -0.001393
            2.505000	           -4.214334	           54.056278	            5.515786	           -0.149923	            0.006289	           -0.417059	           -0.002036	            0.026113	            0.002665	          -10.736733	          118.925950	           -0.509718	           -0.151101	            0.005872	           -0.679239	           -0.016521	            0.182997	           -0.000784
            2.505500	           -5.548796	           64.697004	            4.326581	           -0.153589	            0.006287	           -0.416963	           -0.012537	            0.146178	            0.009776	          -13.625957	          127.571781	           -0.806118	           -0.152915	            0.005867	           -0.679518	           -0.011201	            0.104866	           -0.000663
            2.506000	           -7.477198	           74.252875	            3.867911	           -0.154044	            0.006284	           -0.416173	           -0.013251	            0.131591	            0.006855	          -17.157329	          132.349796	           -1.585317	           -0.153671	            0.005858	           -0.677930	            0.017540	           -0.135302	            0.001621
            2.506500	          -10.412442	           86.328536	            4.293829	           -0.157235	            0.006274	           -0.414026	            0.033026	           -0.273812	           -0.013619	          -21.627380	          137.495570	           -3.160582	           -0.151452	            0.005869	           -0.678777	            0.047539	           -0.302230	            0.006947
            2.507000	          -13.573418	           96.776256	            5.997324	           -0.155614	            0.006279	           -0.415137	            0.072588	           -0.517544	           -0.032073	          -26.369536	          140.243562	           -3.946492	           -0.147158	            0.005882	           -0.677927	            0.069190	           -0.367981	            0.010355
            2.507500	          -17.282098	          103.975942	            8.421966	           -0.156170	            0.006293	           -0.418392	            0.074824	           -0.450174	           -0.036464	          -31.580634	          143.172163	           -4.215336	           -0.145836	            0.005890	           -0.678877	            0.034520	           -0.156497	            0.004608
            2.508000	          -22.046500	          112.258985	           10.395304	           -0.159121	            0.006281	           -0.415738	            0.044653	           -0.227367	           -0.021054	          -36.363249	          144.259281	           -4.068577	           -0.146163	            0.005893	           -0.679940	           -0.043131	            0.171107	           -0.004826
            2.508500	          -26.401302	          118.204551	           10.981891	           -0.158980	            0.006282	           -0.415882	           -0.030837	            0.138062	            0.012827	          -39.402848	          142.772421	           -3.321688	           -0.143277	            0.005901	           -0.679431	           -0.084486	            0.306127	           -0.007122
            2.509000	          -30.620976	          121.090740	           10.362743	           -0.157626	            0.006290	           -0.417740	           -0.053187	            0.210330	            0.018000	          -41.882858	          142.023850	           -2.478555	           -0.140038	            0.005912	           -0.679160	           -0.103185	            0.349899	           -0.006106
            2.509500	          -34.659961	          123.080550	            8.592877	           -0.155961	            0.006282	           -0.415693	            0.009644	           -0.034248	           -0.002391	          -42.869907	          142.940027	           -2.193282	           -0.139500	            0.005919	           -0.680730	            0.003693	           -0.012314	            0.000189
            2.510000	          -38.514612	          124.167692	            7.139683	           -0.154674	            0.006267	           -0.412235	            0.084634	           -0.272853	           -0.015689	          -44.601403	          142.381681	           -2.288372	           -0.138498	            0.005923	           -0.680626	            0.047278	           -0.150927	            0.002426
            2.510500	          -42.688421	          125.071557	            6.374351	           -0.153837	            0.006265	           -0.411797	            0.219121	           -0.641995	           -0.032720	          -47.271931	          142.372708	           -2.474949	           -0.137568	            0.005921	           -0.679361	            0.039617	           -0.119318	            0.002074
            2.511000	          -46.218057	          125.430816	            6.522226	           -0.152432	            0.006263	           -0.411320	            0.217157	           -0.589341	           -0.030645	          -50.089674	          144.204864	           -2.701824	           -0.135369	            0.005934	           -0.680615	            0.011184	           -0.032198	            0.000603
            2.511500	          -49.471801	          125.608487	            6.989636	           -0.153157	            0.006263	           -0.411160	            0.114157	           -0.289843	           -0.016129	          -52.766594	          146.035381	           -2.318692	           -0.134240	            0.005939	           -0.680872	           -0.064562	            0.178680	           -0.002837
            2.512000	          -51.717932	          126.508792	            7.136644	           -0.153916	            0.006261	           -0.410774	           -0.058768	            0.143754	            0.008109	          -55.207694	          147.496424	           -1.373838	           -0.133302	            0.005946	           -0.681797	           -0.107805	            0.288018	           -0.002683
